<svg xmlns="http://www.w3.org/2000/svg" xmlns:xlink="http://www.w3.org/1999/xlink" version="1.1" width="256" height="256" viewBox="0 0 256 256" xml:space="preserve">

<defs>
</defs>
<g style="stroke: none; stroke-width: 0; stroke-dasharray: none; stroke-linecap: butt; stroke-linejoin: miter; stroke-miterlimit: 10; fill: none; fill-rule: nonzero; opacity: 1;" transform="translate(1.4065934065934016 1.4065934065934016) scale(2.81 2.81)" >
	<path d="M 50.634 45 c 0 3.112 -2.522 5.634 -5.634 5.634 c -3.112 0 -5.634 -2.522 -5.634 -5.634 c 0 -3.112 2.522 -5.634 5.634 -5.634 C 48.111 39.366 50.634 41.889 50.634 45 z" style="stroke: none; stroke-width: 1; stroke-dasharray: none; stroke-linecap: butt; stroke-linejoin: miter; stroke-miterlimit: 10; fill: rgb(248,164,167); fill-rule: nonzero; opacity: 1;" transform=" matrix(1 0 0 1 0 0) " stroke-linecap="round" />
	<path d="M 50.634 5.634 c 0 3.112 -2.522 5.634 -5.634 5.634 c -3.112 0 -5.634 -2.523 -5.634 -5.634 S 41.888 0 45 0 C 48.111 0 50.634 2.523 50.634 5.634 z" style="stroke: none; stroke-width: 1; stroke-dasharray: none; stroke-linecap: butt; stroke-linejoin: miter; stroke-miterlimit: 10; fill: rgb(248,164,167); fill-rule: nonzero; opacity: 1;" transform=" matrix(1 0 0 1 0 0) " stroke-linecap="round" />
	<path d="M 50.634 25.317 c 0 3.112 -2.522 5.634 -5.634 5.634 c -3.112 0 -5.634 -2.523 -5.634 -5.634 c 0 -3.112 2.522 -5.634 5.634 -5.634 C 48.111 19.683 50.634 22.206 50.634 25.317 z" style="stroke: none; stroke-width: 1; stroke-dasharray: none; stroke-linecap: butt; stroke-linejoin: miter; stroke-miterlimit: 10; fill: rgb(237,28,36); fill-rule: nonzero; opacity: 1;" transform=" matrix(1 0 0 1 0 0) " stroke-linecap="round" />
	<path d="M 30.196 8.091 c 1.556 2.695 0.633 6.141 -2.062 7.697 c -2.695 1.556 -6.141 0.632 -7.696 -2.062 c -1.556 -2.695 -0.632 -6.14 2.062 -7.696 C 25.194 4.473 28.64 5.397 30.196 8.091 z" style="stroke: none; stroke-width: 1; stroke-dasharray: none; stroke-linecap: butt; stroke-linejoin: miter; stroke-miterlimit: 10; fill: rgb(237,28,36); fill-rule: nonzero; opacity: 1;" transform=" matrix(1 0 0 1 0 0) " stroke-linecap="round" />
	<path d="M 13.725 20.438 c 2.695 1.556 3.618 5.002 2.062 7.696 c -1.556 2.695 -5.002 3.618 -7.696 2.062 c -2.695 -1.556 -3.618 -5.002 -2.062 -7.696 C 7.584 19.805 11.03 18.882 13.725 20.438 z" style="stroke: none; stroke-width: 1; stroke-dasharray: none; stroke-linecap: butt; stroke-linejoin: miter; stroke-miterlimit: 10; fill: rgb(237,28,36); fill-rule: nonzero; opacity: 1;" transform=" matrix(1 0 0 1 0 0) " stroke-linecap="round" />
	<path d="M 5.634 39.366 c 3.112 0 5.634 2.523 5.634 5.634 c 0 3.112 -2.523 5.634 -5.634 5.634 C 2.522 50.634 0 48.112 0 45 C 0 41.889 2.522 39.366 5.634 39.366 z" style="stroke: none; stroke-width: 1; stroke-dasharray: none; stroke-linecap: butt; stroke-linejoin: miter; stroke-miterlimit: 10; fill: rgb(237,28,36); fill-rule: nonzero; opacity: 1;" transform=" matrix(1 0 0 1 0 0) " stroke-linecap="round" />
	<path d="M 8.091 59.804 c 2.695 -1.556 6.141 -0.633 7.696 2.062 c 1.556 2.695 0.633 6.141 -2.062 7.697 c -2.695 1.556 -6.141 0.632 -7.696 -2.062 C 4.473 64.805 5.396 61.36 8.091 59.804 z" style="stroke: none; stroke-width: 1; stroke-dasharray: none; stroke-linecap: butt; stroke-linejoin: miter; stroke-miterlimit: 10; fill: rgb(237,28,36); fill-rule: nonzero; opacity: 1;" transform=" matrix(1 0 0 1 0 0) " stroke-linecap="round" />
	<path d="M 20.438 76.275 c 1.556 -2.695 5.002 -3.618 7.696 -2.062 c 2.695 1.556 3.618 5.002 2.062 7.696 c -1.556 2.695 -5.002 3.618 -7.696 2.062 C 19.806 82.415 18.882 78.969 20.438 76.275 z" style="stroke: none; stroke-width: 1; stroke-dasharray: none; stroke-linecap: butt; stroke-linejoin: miter; stroke-miterlimit: 10; fill: rgb(237,28,36); fill-rule: nonzero; opacity: 1;" transform=" matrix(1 0 0 1 0 0) " stroke-linecap="round" />
	<path d="M 39.366 84.366 c 0 -3.111 2.522 -5.634 5.634 -5.634 c 3.112 0 5.634 2.523 5.634 5.634 c 0 3.112 -2.522 5.634 -5.634 5.634 C 41.888 90 39.366 87.477 39.366 84.366 z" style="stroke: none; stroke-width: 1; stroke-dasharray: none; stroke-linecap: butt; stroke-linejoin: miter; stroke-miterlimit: 10; fill: rgb(237,28,36); fill-rule: nonzero; opacity: 1;" transform=" matrix(1 0 0 1 0 0) " stroke-linecap="round" />
	<path d="M 59.803 81.909 c -1.556 -2.695 -0.633 -6.141 2.062 -7.697 c 2.695 -1.556 6.141 -0.632 7.697 2.062 c 1.556 2.695 0.632 6.141 -2.062 7.696 C 64.804 85.527 61.358 84.603 59.803 81.909 z" style="stroke: none; stroke-width: 1; stroke-dasharray: none; stroke-linecap: butt; stroke-linejoin: miter; stroke-miterlimit: 10; fill: rgb(237,28,36); fill-rule: nonzero; opacity: 1;" transform=" matrix(1 0 0 1 0 0) " stroke-linecap="round" />
	<path d="M 76.274 69.562 c -2.695 -1.556 -3.618 -5.002 -2.062 -7.696 c 1.556 -2.695 5.002 -3.618 7.696 -2.062 c 2.695 1.556 3.618 5.002 2.062 7.696 C 82.414 70.195 78.969 71.118 76.274 69.562 z" style="stroke: none; stroke-width: 1; stroke-dasharray: none; stroke-linecap: butt; stroke-linejoin: miter; stroke-miterlimit: 10; fill: rgb(237,28,36); fill-rule: nonzero; opacity: 1;" transform=" matrix(1 0 0 1 0 0) " stroke-linecap="round" />
	<path d="M 84.366 50.634 c -3.112 0 -5.634 -2.522 -5.634 -5.634 c 0 -3.112 2.523 -5.634 5.634 -5.634 S 90 41.888 90 45 C 90 48.112 87.478 50.634 84.366 50.634 z" style="stroke: none; stroke-width: 1; stroke-dasharray: none; stroke-linecap: butt; stroke-linejoin: miter; stroke-miterlimit: 10; fill: rgb(248,164,167); fill-rule: nonzero; opacity: 1;" transform=" matrix(1 0 0 1 0 0) " stroke-linecap="round" />
	<path d="M 81.908 30.196 c -2.695 1.556 -6.141 0.633 -7.696 -2.062 c -1.556 -2.695 -0.633 -6.141 2.062 -7.696 c 2.695 -1.556 6.141 -0.633 7.696 2.062 C 85.526 25.195 84.603 28.641 81.908 30.196 z" style="stroke: none; stroke-width: 1; stroke-dasharray: none; stroke-linecap: butt; stroke-linejoin: miter; stroke-miterlimit: 10; fill: rgb(248,164,167); fill-rule: nonzero; opacity: 1;" transform=" matrix(1 0 0 1 0 0) " stroke-linecap="round" />
	<path d="M 69.561 13.725 c -1.556 2.695 -5.002 3.618 -7.697 2.062 c -2.695 -1.556 -3.618 -5.002 -2.062 -7.697 c 1.556 -2.695 5.002 -3.618 7.696 -2.062 C 70.194 7.585 71.117 11.031 69.561 13.725 z" style="stroke: none; stroke-width: 1; stroke-dasharray: none; stroke-linecap: butt; stroke-linejoin: miter; stroke-miterlimit: 10; fill: rgb(248,164,167); fill-rule: nonzero; opacity: 1;" transform=" matrix(1 0 0 1 0 0) " stroke-linecap="round" />
	<path d="M 30.771 30.279 c 2.695 1.556 3.618 5.001 2.062 7.696 c -1.556 2.695 -5.002 3.618 -7.696 2.062 c -2.695 -1.556 -3.618 -5.001 -2.062 -7.696 C 24.631 29.647 28.076 28.724 30.771 30.279 z" style="stroke: none; stroke-width: 1; stroke-dasharray: none; stroke-linecap: butt; stroke-linejoin: miter; stroke-miterlimit: 10; fill: rgb(237,28,36); fill-rule: nonzero; opacity: 1;" transform=" matrix(1 0 0 1 0 0) " stroke-linecap="round" />
	<path d="M 25.137 49.962 c 2.695 -1.556 6.141 -0.633 7.697 2.062 c 1.556 2.695 0.632 6.141 -2.062 7.697 c -2.695 1.556 -6.141 0.632 -7.696 -2.062 C 21.519 54.964 22.442 51.518 25.137 49.962 z" style="stroke: none; stroke-width: 1; stroke-dasharray: none; stroke-linecap: butt; stroke-linejoin: miter; stroke-miterlimit: 10; fill: rgb(237,28,36); fill-rule: nonzero; opacity: 1;" transform=" matrix(1 0 0 1 0 0) " stroke-linecap="round" />
	<path d="M 39.366 64.683 c 0 -3.112 2.522 -5.634 5.634 -5.634 c 3.112 0 5.634 2.522 5.634 5.634 c 0 3.112 -2.522 5.634 -5.634 5.634 C 41.888 70.317 39.366 67.795 39.366 64.683 z" style="stroke: none; stroke-width: 1; stroke-dasharray: none; stroke-linecap: butt; stroke-linejoin: miter; stroke-miterlimit: 10; fill: rgb(237,28,36); fill-rule: nonzero; opacity: 1;" transform=" matrix(1 0 0 1 0 0) " stroke-linecap="round" />
	<path d="M 59.228 59.721 c -2.695 -1.556 -3.618 -5.002 -2.062 -7.696 c 1.556 -2.695 5.002 -3.618 7.696 -2.062 c 2.695 1.556 3.618 5.002 2.062 7.696 C 65.369 60.353 61.923 61.277 59.228 59.721 z" style="stroke: none; stroke-width: 1; stroke-dasharray: none; stroke-linecap: butt; stroke-linejoin: miter; stroke-miterlimit: 10; fill: rgb(237,28,36); fill-rule: nonzero; opacity: 1;" transform=" matrix(1 0 0 1 0 0) " stroke-linecap="round" />
	<path d="M 64.862 40.038 c -2.695 1.556 -6.141 0.633 -7.697 -2.062 c -1.556 -2.695 -0.632 -6.141 2.062 -7.696 c 2.695 -1.556 6.141 -0.633 7.696 2.062 C 68.48 35.036 67.557 38.482 64.862 40.038 z" style="stroke: none; stroke-width: 1; stroke-dasharray: none; stroke-linecap: butt; stroke-linejoin: miter; stroke-miterlimit: 10; fill: rgb(237,28,36); fill-rule: nonzero; opacity: 1;" transform=" matrix(1 0 0 1 0 0) " stroke-linecap="round" />
</g>
</svg>