<svg xmlns="http://www.w3.org/2000/svg" xmlns:xlink="http://www.w3.org/1999/xlink" version="1.1" width="256" height="256" viewBox="0 0 256 256" xml:space="preserve">

<defs>
</defs>
<g style="stroke: none; stroke-width: 0; stroke-dasharray: none; stroke-linecap: butt; stroke-linejoin: miter; stroke-miterlimit: 10; fill: none; fill-rule: nonzero; opacity: 1;" transform="translate(1.4065934065934016 1.4065934065934016) scale(2.81 2.81)" >
	<path d="M 49.235 33.83 c 0 2.339 -1.896 4.235 -4.236 4.235 c -2.339 0 -4.236 -1.896 -4.236 -4.235 S 42.66 29.594 45 29.594 C 47.339 29.594 49.235 31.491 49.235 33.83 z" style="stroke: none; stroke-width: 1; stroke-dasharray: none; stroke-linecap: butt; stroke-linejoin: miter; stroke-miterlimit: 10; fill: rgb(248,164,167); fill-rule: nonzero; opacity: 1;" transform=" matrix(1 0 0 1 0 0) " stroke-linecap="round" />
	<path d="M 49.235 4.236 c 0 2.339 -1.896 4.236 -4.236 4.236 c -2.339 0 -4.236 -1.896 -4.236 -4.236 S 42.66 0 45 0 C 47.339 0 49.235 1.896 49.235 4.236 z" style="stroke: none; stroke-width: 1; stroke-dasharray: none; stroke-linecap: butt; stroke-linejoin: miter; stroke-miterlimit: 10; fill: rgb(248,164,167); fill-rule: nonzero; opacity: 1;" transform=" matrix(1 0 0 1 0 0) " stroke-linecap="round" />
	<path d="M 49.235 19.033 c 0 2.339 -1.896 4.236 -4.236 4.236 c -2.339 0 -4.236 -1.896 -4.236 -4.236 c 0 -2.339 1.896 -4.236 4.236 -4.236 C 47.339 14.797 49.235 16.693 49.235 19.033 z" style="stroke: none; stroke-width: 1; stroke-dasharray: none; stroke-linecap: butt; stroke-linejoin: miter; stroke-miterlimit: 10; fill: rgb(237,28,36); fill-rule: nonzero; opacity: 1;" transform=" matrix(1 0 0 1 0 0) " stroke-linecap="round" />
	<path d="M 33.871 6.083 c 1.17 2.026 0.476 4.616 -1.55 5.786 c -2.026 1.169 -4.616 0.475 -5.786 -1.55 c -1.17 -2.026 -0.475 -4.616 1.55 -5.786 C 30.111 3.363 32.701 4.057 33.871 6.083 z" style="stroke: none; stroke-width: 1; stroke-dasharray: none; stroke-linecap: butt; stroke-linejoin: miter; stroke-miterlimit: 10; fill: rgb(237,28,36); fill-rule: nonzero; opacity: 1;" transform=" matrix(1 0 0 1 0 0) " stroke-linecap="round" />
	<path d="M 21.488 15.365 c 2.026 1.17 2.72 3.76 1.55 5.786 c -1.17 2.026 -3.76 2.72 -5.786 1.55 c -2.026 -1.17 -2.72 -3.76 -1.55 -5.786 C 16.872 14.889 19.462 14.195 21.488 15.365 z" style="stroke: none; stroke-width: 1; stroke-dasharray: none; stroke-linecap: butt; stroke-linejoin: miter; stroke-miterlimit: 10; fill: rgb(237,28,36); fill-rule: nonzero; opacity: 1;" transform=" matrix(1 0 0 1 0 0) " stroke-linecap="round" />
	<path d="M 15.405 29.594 c 2.339 0 4.236 1.896 4.236 4.236 s -1.896 4.235 -4.236 4.235 c -2.339 0 -4.235 -1.896 -4.235 -4.235 S 13.066 29.594 15.405 29.594 z" style="stroke: none; stroke-width: 1; stroke-dasharray: none; stroke-linecap: butt; stroke-linejoin: miter; stroke-miterlimit: 10; fill: rgb(237,28,36); fill-rule: nonzero; opacity: 1;" transform=" matrix(1 0 0 1 0 0) " stroke-linecap="round" />
	<path d="M 17.252 44.959 c 2.026 -1.17 4.616 -0.476 5.786 1.55 c 1.17 2.026 0.476 4.616 -1.55 5.786 c -2.026 1.17 -4.616 0.475 -5.786 -1.55 C 14.532 48.719 15.226 46.129 17.252 44.959 z" style="stroke: none; stroke-width: 1; stroke-dasharray: none; stroke-linecap: butt; stroke-linejoin: miter; stroke-miterlimit: 10; fill: rgb(237,28,36); fill-rule: nonzero; opacity: 1;" transform=" matrix(1 0 0 1 0 0) " stroke-linecap="round" />
	<path d="M 26.535 57.341 c 1.17 -2.026 3.76 -2.72 5.786 -1.55 c 2.026 1.17 2.72 3.76 1.55 5.786 c -1.17 2.026 -3.76 2.72 -5.786 1.55 C 26.059 61.958 25.365 59.367 26.535 57.341 z" style="stroke: none; stroke-width: 1; stroke-dasharray: none; stroke-linecap: butt; stroke-linejoin: miter; stroke-miterlimit: 10; fill: rgb(237,28,36); fill-rule: nonzero; opacity: 1;" transform=" matrix(1 0 0 1 0 0) " stroke-linecap="round" />
	<path d="M 40.764 63.424 c 0 -2.339 1.896 -4.235 4.235 -4.235 c 2.339 0 4.236 1.896 4.236 4.235 c 0 2.339 -1.896 4.236 -4.236 4.236 C 42.66 67.66 40.764 65.763 40.764 63.424 z" style="stroke: none; stroke-width: 1; stroke-dasharray: none; stroke-linecap: butt; stroke-linejoin: miter; stroke-miterlimit: 10; fill: rgb(237,28,36); fill-rule: nonzero; opacity: 1;" transform=" matrix(1 0 0 1 0 0) " stroke-linecap="round" />
	<path d="M 56.128 61.577 c -1.17 -2.026 -0.476 -4.616 1.55 -5.786 c 2.026 -1.17 4.616 -0.475 5.786 1.55 c 1.17 2.026 0.475 4.616 -1.55 5.786 C 59.888 64.297 57.298 63.603 56.128 61.577 z" style="stroke: none; stroke-width: 1; stroke-dasharray: none; stroke-linecap: butt; stroke-linejoin: miter; stroke-miterlimit: 10; fill: rgb(237,28,36); fill-rule: nonzero; opacity: 1;" transform=" matrix(1 0 0 1 0 0) " stroke-linecap="round" />
	<path d="M 68.511 52.295 c -2.026 -1.17 -2.72 -3.76 -1.55 -5.786 c 1.17 -2.026 3.76 -2.72 5.786 -1.55 c 2.026 1.17 2.72 3.76 1.55 5.786 C 73.127 52.771 70.537 53.465 68.511 52.295 z" style="stroke: none; stroke-width: 1; stroke-dasharray: none; stroke-linecap: butt; stroke-linejoin: miter; stroke-miterlimit: 10; fill: rgb(237,28,36); fill-rule: nonzero; opacity: 1;" transform=" matrix(1 0 0 1 0 0) " stroke-linecap="round" />
	<path d="M 74.595 38.065 c -2.339 0 -4.236 -1.896 -4.236 -4.235 c 0 -2.339 1.896 -4.236 4.236 -4.236 s 4.235 1.896 4.235 4.236 C 78.83 36.169 76.934 38.065 74.595 38.065 z" style="stroke: none; stroke-width: 1; stroke-dasharray: none; stroke-linecap: butt; stroke-linejoin: miter; stroke-miterlimit: 10; fill: rgb(248,164,167); fill-rule: nonzero; opacity: 1;" transform=" matrix(1 0 0 1 0 0) " stroke-linecap="round" />
	<path d="M 72.747 22.701 c -2.026 1.17 -4.616 0.476 -5.786 -1.55 c -1.17 -2.026 -0.476 -4.616 1.55 -5.786 c 2.026 -1.17 4.616 -0.476 5.786 1.55 C 75.467 18.941 74.773 21.531 72.747 22.701 z" style="stroke: none; stroke-width: 1; stroke-dasharray: none; stroke-linecap: butt; stroke-linejoin: miter; stroke-miterlimit: 10; fill: rgb(248,164,167); fill-rule: nonzero; opacity: 1;" transform=" matrix(1 0 0 1 0 0) " stroke-linecap="round" />
	<path d="M 63.465 10.318 c -1.17 2.026 -3.76 2.72 -5.786 1.55 c -2.026 -1.17 -2.72 -3.76 -1.55 -5.786 c 1.17 -2.026 3.76 -2.72 5.786 -1.55 C 63.94 5.702 64.634 8.293 63.465 10.318 z" style="stroke: none; stroke-width: 1; stroke-dasharray: none; stroke-linecap: butt; stroke-linejoin: miter; stroke-miterlimit: 10; fill: rgb(248,164,167); fill-rule: nonzero; opacity: 1;" transform=" matrix(1 0 0 1 0 0) " stroke-linecap="round" />
	<path d="M 34.303 22.763 c 2.026 1.17 2.72 3.76 1.55 5.786 c -1.17 2.026 -3.76 2.72 -5.786 1.55 c -2.026 -1.17 -2.72 -3.76 -1.55 -5.786 C 29.687 22.288 32.277 21.594 34.303 22.763 z" style="stroke: none; stroke-width: 1; stroke-dasharray: none; stroke-linecap: butt; stroke-linejoin: miter; stroke-miterlimit: 10; fill: rgb(237,28,36); fill-rule: nonzero; opacity: 1;" transform=" matrix(1 0 0 1 0 0) " stroke-linecap="round" />
	<path d="M 30.067 37.56 c 2.026 -1.17 4.616 -0.476 5.786 1.55 c 1.17 2.026 0.475 4.616 -1.55 5.786 c -2.026 1.17 -4.616 0.475 -5.786 -1.55 C 27.347 41.32 28.041 38.73 30.067 37.56 z" style="stroke: none; stroke-width: 1; stroke-dasharray: none; stroke-linecap: butt; stroke-linejoin: miter; stroke-miterlimit: 10; fill: rgb(237,28,36); fill-rule: nonzero; opacity: 1;" transform=" matrix(1 0 0 1 0 0) " stroke-linecap="round" />
	<path d="M 40.764 48.627 c 0 -2.339 1.896 -4.235 4.235 -4.235 c 2.339 0 4.236 1.896 4.236 4.235 c 0 2.339 -1.896 4.236 -4.236 4.236 C 42.66 52.863 40.764 50.966 40.764 48.627 z" style="stroke: none; stroke-width: 1; stroke-dasharray: none; stroke-linecap: butt; stroke-linejoin: miter; stroke-miterlimit: 10; fill: rgb(237,28,36); fill-rule: nonzero; opacity: 1;" transform=" matrix(1 0 0 1 0 0) " stroke-linecap="round" />
	<path d="M 55.696 44.897 c -2.026 -1.17 -2.72 -3.76 -1.55 -5.786 c 1.17 -2.026 3.76 -2.72 5.786 -1.55 c 2.026 1.17 2.72 3.76 1.55 5.786 C 60.313 45.372 57.722 46.066 55.696 44.897 z" style="stroke: none; stroke-width: 1; stroke-dasharray: none; stroke-linecap: butt; stroke-linejoin: miter; stroke-miterlimit: 10; fill: rgb(237,28,36); fill-rule: nonzero; opacity: 1;" transform=" matrix(1 0 0 1 0 0) " stroke-linecap="round" />
	<path d="M 59.932 30.099 c -2.026 1.17 -4.616 0.476 -5.786 -1.55 c -1.17 -2.026 -0.475 -4.616 1.55 -5.786 c 2.026 -1.17 4.616 -0.476 5.786 1.55 C 62.652 26.339 61.958 28.93 59.932 30.099 z" style="stroke: none; stroke-width: 1; stroke-dasharray: none; stroke-linecap: butt; stroke-linejoin: miter; stroke-miterlimit: 10; fill: rgb(237,28,36); fill-rule: nonzero; opacity: 1;" transform=" matrix(1 0 0 1 0 0) " stroke-linecap="round" />
	<path d="M 57.261 82.424 h 2.332 v 1.22 h 0.04 c 0.502 -0.923 1.156 -1.409 2.184 -1.409 c 0.261 0 0.562 0.02 0.767 0.08 v 2.136 c -0.317 -0.092 -0.654 -0.161 -0.992 -0.161 c -1.774 0 -1.999 1.032 -1.999 2.541 V 90 h -2.332 V 82.424 z" style="stroke: none; stroke-width: 1; stroke-dasharray: none; stroke-linecap: butt; stroke-linejoin: miter; stroke-miterlimit: 10; fill: rgb(237,28,36); fill-rule: nonzero; opacity: 1;" transform=" matrix(1 0 0 1 0 0) " stroke-linecap="round" />
	<path d="M 55.571 78.213 h -2.332 v 11.783 h 2.332 V 78.213 z" style="stroke: none; stroke-width: 1; stroke-dasharray: none; stroke-linecap: butt; stroke-linejoin: miter; stroke-miterlimit: 10; fill: rgb(237,28,36); fill-rule: nonzero; opacity: 1;" transform=" matrix(1 0 0 1 0 0) " stroke-linecap="round" />
	<path d="M 45.827 85.945 l -2.521 -3.521 h 2.746 l 1.345 2.06 l 1.293 -2.06 h 2.594 l -2.445 3.521 L 51.753 90 h -2.766 l -1.662 -2.525 L 45.566 90 H 42.82 L 45.827 85.945 z" style="stroke: none; stroke-width: 1; stroke-dasharray: none; stroke-linecap: butt; stroke-linejoin: miter; stroke-miterlimit: 10; fill: rgb(237,28,36); fill-rule: nonzero; opacity: 1;" transform=" matrix(1 0 0 1 0 0) " stroke-linecap="round" />
	<path d="M 39.05 82.424 h 2.317 V 90 H 39.05 V 82.424 z M 40.21 78.683 c 0.751 0 1.365 0.606 1.365 1.353 c 0 0.747 -0.614 1.361 -1.365 1.361 c -0.747 0 -1.361 -0.614 -1.361 -1.361 C 38.845 79.289 39.46 78.683 40.21 78.683 z" style="stroke: none; stroke-width: 1; stroke-dasharray: none; stroke-linecap: butt; stroke-linejoin: miter; stroke-miterlimit: 10; fill: rgb(237,28,36); fill-rule: nonzero; opacity: 1;" transform=" matrix(1 0 0 1 0 0) " stroke-linecap="round" />
	<path d="M 31.37 83.982 l -5.456 -5.107 V 90 h 2.577 v -5.283 l 2.822 2.614 l 2.879 -2.61 V 90 h 2.577 V 78.859 L 31.37 83.982 z" style="stroke: none; stroke-width: 1; stroke-dasharray: none; stroke-linecap: butt; stroke-linejoin: miter; stroke-miterlimit: 10; fill: rgb(237,28,36); fill-rule: nonzero; opacity: 1;" transform=" matrix(1 0 0 1 0 0) " stroke-linecap="round" />
</g>
</svg>